<?xml version="1.0" standalone="no"?>
<!DOCTYPE svg PUBLIC "-//W3C//DTD SVG 1.1//EN" "http://www.w3.org/Graphics/SVG/1.1/DTD/svg11.dtd">
<svg width="100%" height="100%" viewBox="0 0 320 52" version="1.1" xmlns="http://www.w3.org/2000/svg" xmlns:xlink="http://www.w3.org/1999/xlink" xml:space="preserve" style="fill-rule:evenodd;clip-rule:evenodd;stroke-linejoin:round;stroke-miterlimit:1.41421;">
    <g transform="matrix(1,0,0,1,-221.43,-299.881)">
        <path d="M278.864,300.539C278.864,300.349 278.991,300.225 279.182,300.225L282.052,300.225C282.302,300.225 282.459,300.319 282.585,300.539L291.244,315.197L291.366,315.197L291.366,300.539C291.366,300.349 291.493,300.225 291.681,300.225L294.399,300.225C294.59,300.225 294.709,300.349 294.709,300.539L294.709,321.163C294.709,321.35 294.59,321.473 294.399,321.473L291.552,321.473C291.303,321.473 291.148,321.38 291.023,321.163L282.337,306.538L282.209,306.538L282.209,321.163C282.209,321.35 282.085,321.473 281.898,321.473L279.182,321.473C278.991,321.473 278.864,321.35 278.864,321.163L278.864,300.539L278.864,300.539Z" style="fill:white;fill-rule:nonzero;"/>
        <path d="M221.43,300.539C221.43,300.349 221.557,300.225 221.741,300.225L224.805,300.225C224.995,300.225 225.12,300.349 225.12,300.539L225.12,317.975C225.12,318.098 225.179,318.165 225.307,318.165L235.06,318.165C235.246,318.165 235.371,318.289 235.371,318.478L235.371,321.163C235.371,321.35 235.246,321.476 235.06,321.476L221.741,321.476C221.557,321.476 221.43,321.35 221.43,321.163L221.43,300.539Z" style="fill:white;fill-rule:nonzero;"/>
        <path d="M255.119,300.539C255.18,300.349 255.304,300.225 255.524,300.225L258.399,300.225C258.613,300.225 258.741,300.349 258.806,300.539L265.994,321.163C266.054,321.35 265.994,321.476 265.771,321.476L262.709,321.476C262.492,321.476 262.367,321.379 262.302,321.163L260.898,317.038L252.897,317.038L251.491,321.163C251.428,321.38 251.303,321.476 251.084,321.476L248.055,321.476C247.836,321.476 247.772,321.35 247.836,321.163L255.119,300.539ZM259.771,313.757L256.962,305.508L256.865,305.508L254.023,313.757L259.771,313.757Z" style="fill:white;fill-rule:nonzero;"/>
        <path d="M309.985,300.539C309.985,300.349 310.107,300.225 310.295,300.225L317.89,300.225C321.548,300.225 323.984,301.853 324.986,304.944C325.327,306.008 325.516,307.162 325.516,310.851C325.516,314.538 325.327,315.692 324.986,316.757C323.984,319.851 321.548,321.476 317.89,321.476L310.295,321.476C310.107,321.476 309.985,321.35 309.985,321.163L309.985,300.539ZM313.859,318.165L317.015,318.165C319.358,318.165 320.797,317.384 321.419,315.475C321.639,314.88 321.797,313.913 321.797,310.851C321.797,307.756 321.639,306.819 321.419,306.227C320.797,304.317 319.358,303.537 317.015,303.537L313.859,303.537C313.734,303.537 313.672,303.597 313.672,303.724L313.672,317.975C313.672,318.098 313.735,318.165 313.859,318.165Z" style="fill:white;fill-rule:nonzero;"/>
        <path d="M339.536,300.539C339.536,300.349 339.661,300.225 339.851,300.225L342.911,300.225C343.099,300.225 343.223,300.349 343.223,300.539L343.223,321.163C343.223,321.35 343.099,321.473 342.911,321.473L339.851,321.473C339.661,321.473 339.536,321.35 339.536,321.163L339.536,300.539Z" style="fill:white;fill-rule:nonzero;"/>
        <path d="M358.761,300.539C358.761,300.349 358.888,300.225 359.073,300.225L361.953,300.225C362.197,300.225 362.355,300.319 362.479,300.539L371.137,315.197L371.265,315.197L371.265,300.539C371.265,300.349 371.387,300.225 371.577,300.225L374.293,300.225C374.48,300.225 374.61,300.349 374.61,300.539L374.61,321.163C374.61,321.35 374.48,321.476 374.293,321.476L371.45,321.476C371.198,321.476 371.043,321.379 370.918,321.163L362.23,306.538L362.105,306.538L362.105,321.163C362.105,321.35 361.982,321.476 361.791,321.476L359.073,321.476C358.888,321.476 358.761,321.35 358.761,321.163L358.761,300.539Z" style="fill:white;fill-rule:nonzero;"/>
        <path d="M389.016,310.851C389.016,307.506 389.14,306.32 389.575,305.004C390.674,301.631 393.423,299.881 397.174,299.881C401.141,299.881 403.702,302.006 404.578,304.38C404.641,304.535 404.612,304.725 404.453,304.818L401.828,305.974C401.641,306.036 401.489,305.944 401.424,305.817C400.484,304.133 399.201,303.195 397.141,303.195C394.984,303.195 393.732,304.253 393.14,305.973C392.889,306.755 392.763,307.819 392.763,310.849C392.763,313.847 392.889,314.943 393.14,315.725C393.732,317.443 394.984,318.506 397.141,318.506C399.016,318.506 400.611,317.566 401.175,315.851C401.391,315.194 401.515,314.317 401.515,313.1C401.515,312.974 401.455,312.913 401.329,312.913L397.825,312.913C397.64,312.913 397.515,312.788 397.515,312.601L397.515,310.098C397.515,309.911 397.64,309.785 397.825,309.785L404.862,309.785C405.047,309.785 405.173,309.912 405.173,310.098L405.173,311.939C405.173,313.693 405.016,315.534 404.671,316.598C403.64,319.913 400.827,321.814 397.173,321.814C393.422,321.814 390.673,320.07 389.574,316.691C389.14,315.382 389.016,314.193 389.016,310.851Z" style="fill:white;fill-rule:nonzero;"/>
        <path d="M420.67,317.975C420.67,317.788 420.795,317.662 420.982,317.662L424.108,317.662C424.297,317.662 424.419,317.788 424.419,317.975L424.419,321.163C424.419,321.35 424.297,321.476 424.108,321.476L420.982,321.476C420.794,321.476 420.67,321.35 420.67,321.163L420.67,317.975Z" style="fill:white;fill-rule:nonzero;"/>
        <path d="M440.431,318.822L442.711,317.105C442.866,317.008 443.023,317.008 443.178,317.195C443.711,317.819 444.772,318.509 446.022,318.509C448.272,318.509 449.555,317.105 449.555,314.321L449.555,300.54C449.555,300.35 449.678,300.226 449.867,300.226L452.929,300.226C453.118,300.226 453.241,300.35 453.241,300.54L453.241,314.321C453.241,319.136 450.398,321.818 445.897,321.818C443.489,321.818 441.303,320.664 440.366,319.26C440.272,319.101 440.272,318.945 440.431,318.822Z" style="fill:white;fill-rule:nonzero;"/>
        <path d="M467.407,316.694C466.969,315.382 466.845,314.193 466.845,310.851C466.845,307.506 466.97,306.32 467.407,305.004C468.499,301.631 471.251,299.881 474.907,299.881C478.594,299.881 481.345,301.631 482.439,305.004C482.876,306.32 483.001,307.505 483.001,310.851C483.001,314.193 482.876,315.382 482.439,316.694C481.345,320.072 478.594,321.817 474.907,321.817C471.251,321.817 468.5,320.073 467.407,316.694ZM478.874,315.727C479.124,314.945 479.251,313.849 479.251,310.851C479.251,307.821 479.125,306.757 478.874,305.975C478.281,304.254 477.033,303.197 474.907,303.197C472.812,303.197 471.56,304.255 470.968,305.975C470.717,306.757 470.594,307.821 470.594,310.851C470.594,313.849 470.717,314.945 470.968,315.727C471.56,317.445 472.812,318.508 474.907,318.508C477.033,318.508 478.281,317.445 478.874,315.727Z" style="fill:white;fill-rule:nonzero;"/>
        <path d="M497.498,300.539C497.498,300.349 497.627,300.225 497.815,300.225L505.722,300.225C510.22,300.225 512.348,302.476 512.348,305.878C512.348,308.289 511.224,309.663 509.876,310.38L509.876,310.443C511.192,310.943 512.722,312.634 512.722,315.225C512.722,319.444 510.066,321.475 505.406,321.475L497.816,321.475C497.628,321.475 497.499,321.349 497.499,321.162L497.499,300.539L497.498,300.539ZM505.628,309.072C507.503,309.072 508.656,307.947 508.656,306.289C508.656,304.598 507.502,303.476 505.628,303.476L501.376,303.476C501.249,303.476 501.189,303.538 501.189,303.663L501.189,308.883C501.189,309.006 501.249,309.073 501.376,309.073L505.628,309.073L505.628,309.072ZM501.376,318.227L505.814,318.227C507.875,318.227 509.032,317.038 509.032,315.259C509.032,313.51 507.875,312.322 505.814,312.322L501.376,312.322C501.249,312.322 501.189,312.381 501.189,312.507L501.189,318.038C501.189,318.165 501.249,318.227 501.376,318.227Z" style="fill:white;fill-rule:nonzero;"/>
        <path d="M524.925,319.007C524.799,318.883 524.737,318.693 524.861,318.535L526.8,316.287C526.924,316.132 527.111,316.132 527.237,316.257C528.611,317.351 530.642,318.508 533.018,318.508C535.546,318.508 537.017,317.224 537.017,315.443C537.017,313.912 536.082,312.915 533.143,312.506L532.015,312.348C527.924,311.787 525.613,309.82 525.613,306.288C525.613,302.443 528.425,299.881 532.803,299.881C535.457,299.881 537.99,300.725 539.675,302.006C539.832,302.132 539.865,302.258 539.738,302.443L538.238,304.754C538.113,304.911 537.959,304.944 537.799,304.851C536.083,303.724 534.485,303.197 532.707,303.197C530.551,303.197 529.36,304.381 529.36,306.037C529.36,307.506 530.393,308.503 533.265,308.914L534.393,309.072C538.489,309.631 540.737,311.568 540.737,315.227C540.737,319.008 538.019,321.817 532.738,321.817C529.615,321.817 526.581,320.571 524.925,319.007Z" style="fill:white;fill-rule:nonzero;"/>
        <path d="M221.741,351.805C221.553,351.805 221.43,351.685 221.43,351.495L221.43,348.837C221.43,348.647 221.554,348.524 221.741,348.524L540.581,348.524C540.77,348.524 540.895,348.648 540.895,348.837L540.895,351.495C540.895,351.685 540.77,351.805 540.581,351.805L221.741,351.805Z" style="fill:rgb(60,190,177);fill-rule:nonzero;"/>
    </g>
</svg>
